<?xml version="1.0" standalone="no"?>
<!DOCTYPE svg PUBLIC "-//W3C//DTD SVG 20010904//EN"
 "http://www.w3.org/TR/2001/REC-SVG-20010904/DTD/svg10.dtd">
<svg version="1.0" xmlns="http://www.w3.org/2000/svg"
 width="1024.000000pt" height="1024.000000pt" viewBox="0 0 1024.000000 1024.000000"
 preserveAspectRatio="xMidYMid meet">
<metadata>
Created by potrace 1.14, written by Peter Selinger 2001-2017
</metadata>
<g transform="translate(0.000000,1024.000000) scale(0.100000,-0.100000)"
fill="#000000" stroke="none">
<path d="M4839 10226 c-2 -2 -47 -7 -99 -11 -52 -4 -115 -9 -140 -10 -25 -2
-61 -6 -80 -9 -19 -4 -53 -8 -75 -11 -22 -3 -51 -7 -65 -9 -14 -2 -45 -6 -70
-10 -25 -4 -83 -14 -130 -22 -47 -9 -93 -16 -102 -17 -10 -1 -18 -5 -18 -9 0
-4 -9 -5 -20 -3 -11 2 -22 0 -25 -5 -3 -5 -12 -7 -19 -4 -8 3 -17 0 -21 -5 -3
-6 -10 -9 -14 -6 -5 2 -23 0 -42 -6 -19 -6 -45 -12 -59 -15 -25 -5 -58 -14
-200 -56 -41 -12 -78 -23 -82 -24 -5 -1 -10 -3 -13 -4 -3 -1 -9 -4 -15 -5 -5
-1 -12 -4 -15 -5 -3 -1 -8 -3 -12 -5 -5 -1 -15 -5 -23 -8 -21 -9 -193 -67
-205 -70 -5 -1 -12 -4 -15 -7 -3 -3 -23 -11 -45 -19 -22 -8 -62 -24 -90 -36
-56 -25 -88 -38 -95 -39 -3 -1 -62 -29 -132 -64 -70 -34 -132 -62 -137 -62 -6
0 -11 -3 -11 -7 0 -5 -29 -21 -65 -38 -36 -16 -65 -33 -65 -37 0 -5 -4 -8 -9
-8 -13 0 -155 -82 -159 -92 -2 -4 -8 -8 -14 -8 -6 0 -70 -39 -142 -87 -72 -49
-135 -90 -140 -92 -5 -2 -16 -11 -26 -20 -9 -9 -54 -43 -99 -75 -46 -33 -88
-64 -94 -70 -7 -6 -43 -36 -82 -67 -38 -31 -87 -73 -109 -93 -21 -20 -40 -36
-42 -36 -10 0 -330 -319 -404 -402 -30 -34 -65 -72 -77 -85 -13 -13 -23 -27
-23 -30 0 -3 -6 -11 -14 -17 -7 -6 -49 -56 -92 -111 -43 -55 -80 -102 -83
-105 -4 -3 -10 -12 -16 -21 -5 -9 -43 -63 -83 -120 -96 -137 -202 -299 -195
-299 4 0 0 -8 -8 -17 -8 -10 -20 -29 -28 -43 -8 -14 -27 -46 -42 -72 -16 -27
-25 -48 -21 -48 4 0 2 -4 -4 -8 -14 -10 -70 -117 -165 -317 -23 -49 -43 -94
-43 -100 -1 -5 -6 -19 -12 -30 -7 -11 -24 -51 -39 -90 -14 -38 -31 -79 -35
-90 -15 -33 -81 -218 -86 -241 -2 -12 -11 -41 -20 -65 -8 -24 -18 -55 -20 -68
-3 -13 -9 -32 -15 -43 -5 -10 -8 -18 -5 -18 3 0 0 -15 -5 -32 -6 -18 -12 -40
-14 -48 -2 -8 -15 -63 -30 -122 -14 -59 -24 -112 -21 -117 4 -5 2 -11 -3 -13
-5 -1 -12 -19 -14 -38 -3 -19 -6 -35 -7 -35 -1 0 -3 -9 -4 -20 -2 -11 -6 -37
-10 -57 -3 -21 -9 -55 -12 -75 -10 -69 -15 -98 -20 -128 -3 -16 -7 -52 -9 -80
-2 -27 -4 -50 -5 -50 -2 0 -9 -69 -14 -135 -2 -30 -5 -55 -6 -55 0 0 -4 -61
-8 -135 -12 -232 -5 -582 14 -730 3 -25 7 -56 8 -70 1 -14 6 -31 10 -39 7 -10
5 -12 -4 -6 -9 6 -11 4 -5 -5 4 -7 9 -23 11 -34 1 -12 5 -41 9 -66 3 -25 8
-61 11 -80 4 -31 12 -72 29 -160 8 -40 16 -83 20 -105 2 -11 9 -40 15 -65 7
-25 13 -52 15 -60 2 -8 11 -44 20 -80 10 -36 19 -74 21 -85 1 -11 3 -22 4 -25
1 -3 2 -8 1 -12 0 -5 3 -8 7 -8 4 0 8 -9 9 -21 1 -11 10 -44 20 -72 10 -29 18
-56 19 -62 0 -5 4 -17 7 -25 3 -8 31 -87 63 -175 31 -88 65 -180 76 -205 11
-25 26 -59 34 -76 7 -16 27 -61 44 -100 17 -38 31 -71 31 -74 0 -3 6 -12 13
-20 7 -8 21 -35 31 -60 10 -25 25 -52 32 -61 7 -8 13 -22 13 -30 0 -8 4 -19 9
-25 10 -9 73 -121 94 -164 6 -14 14 -27 18 -30 3 -3 19 -29 35 -57 16 -29 32
-53 37 -53 4 0 7 -7 7 -15 0 -8 5 -15 10 -15 6 0 10 -5 10 -10 0 -9 66 -116
80 -130 3 -3 19 -25 35 -50 17 -25 33 -47 38 -48 4 -2 7 -10 7 -17 0 -7 3 -15
8 -17 4 -1 33 -38 66 -81 32 -43 69 -90 82 -104 13 -14 24 -29 24 -32 0 -3 15
-22 33 -42 18 -20 43 -49 56 -65 75 -97 345 -369 501 -507 30 -27 66 -58 80
-71 14 -12 45 -37 70 -56 24 -19 50 -39 56 -45 6 -5 26 -21 44 -35 18 -14 48
-36 65 -50 18 -14 43 -32 55 -40 12 -8 29 -21 36 -28 8 -7 14 -11 14 -7 0 4 7
-1 16 -10 17 -16 204 -141 284 -189 25 -15 52 -31 60 -36 51 -33 197 -113 208
-114 8 -1 17 -7 20 -13 4 -5 19 -13 35 -17 15 -3 27 -11 27 -16 0 -6 4 -10 10
-10 9 0 205 -89 242 -110 10 -6 25 -10 33 -10 8 0 15 -4 15 -10 0 -5 6 -10 13
-10 7 0 53 -16 103 -36 130 -53 244 -94 244 -87 0 3 6 1 13 -5 11 -9 70 -29
155 -53 17 -5 47 -13 65 -18 119 -34 220 -61 272 -72 71 -15 74 -16 78 -19 1
-1 11 -3 22 -5 18 -2 52 -8 115 -20 14 -3 41 -7 60 -10 19 -3 42 -8 50 -10 8
-2 38 -6 65 -10 28 -3 64 -8 80 -11 17 -4 48 -7 70 -9 65 -5 168 -16 200 -21
44 -8 748 -12 760 -5 6 3 28 6 50 7 73 4 213 19 350 40 28 4 58 8 68 8 9 0 17
3 17 6 0 3 15 6 33 6 17 1 50 5 72 9 22 4 47 9 55 9 9 1 20 5 25 8 6 3 26 9
45 12 19 3 46 8 60 11 14 3 36 8 50 11 53 11 150 37 280 76 74 22 141 41 148
41 6 0 12 5 12 10 0 5 7 7 15 3 8 -3 15 -1 15 5 0 6 4 8 9 4 5 -3 12 -1 16 5
3 5 13 10 21 10 14 0 144 48 254 94 52 22 89 37 100 41 15 5 127 57 142 65 9
5 86 44 170 87 84 43 158 81 163 86 6 4 55 35 110 68 55 33 109 65 120 72 11
7 23 16 26 20 3 5 9 7 12 5 3 -1 17 7 31 19 14 13 26 20 26 18 0 -3 6 -1 13 5
18 16 95 72 157 115 30 21 59 42 65 47 5 4 38 30 73 57 251 197 553 486 731
701 12 14 31 36 44 51 12 14 33 40 47 59 14 18 30 38 35 44 6 6 31 38 55 71
25 33 47 62 50 65 4 3 22 28 41 55 18 28 37 52 42 53 4 2 7 9 7 16 0 7 9 21
20 31 11 10 20 24 20 32 0 7 4 13 9 13 5 0 13 9 16 20 3 11 12 26 18 32 7 7
26 35 42 62 17 28 40 66 52 85 13 20 26 43 30 51 3 8 16 31 28 50 37 60 166
303 170 320 1 3 13 30 27 60 42 91 108 240 108 244 0 3 4 15 9 28 5 13 10 28
11 33 1 6 7 19 13 30 6 11 12 26 13 34 2 11 19 58 50 136 4 11 9 25 9 30 1 6
5 17 8 25 7 18 40 121 43 135 2 6 5 19 8 30 54 200 88 337 89 363 0 6 3 12 7
12 3 0 7 10 7 23 1 12 8 49 17 82 13 54 20 86 31 150 2 11 4 20 5 20 1 0 3 11
5 25 10 82 18 136 21 142 25 42 24 914 -1 1073 -3 17 -7 57 -10 90 -8 92 -14
138 -18 160 -3 11 -8 45 -12 75 -4 30 -9 64 -12 75 -2 11 -6 31 -8 45 -2 14
-7 39 -10 55 -4 17 -8 41 -10 55 -2 14 -4 25 -5 25 -1 0 -3 7 -5 15 -2 13 -37
167 -40 180 -11 42 -23 85 -52 185 -19 66 -35 126 -36 133 0 6 -5 12 -10 12
-6 0 -8 3 -4 6 3 4 -3 29 -14 58 -11 28 -22 56 -23 61 -2 6 -6 24 -11 40 -4
17 -11 35 -15 40 -5 6 -10 19 -12 30 -1 11 -6 23 -11 26 -4 3 -9 14 -11 25 -7
30 -23 72 -80 196 -29 63 -43 99 -44 111 -1 4 -8 15 -17 23 -8 9 -15 23 -15
33 0 9 -4 21 -9 27 -4 5 -28 47 -52 94 -23 47 -53 102 -66 123 -13 20 -20 37
-16 37 5 0 3 4 -2 8 -6 4 -37 52 -69 106 -62 105 -99 163 -116 183 -5 7 -10
17 -10 22 0 6 -11 22 -25 36 -14 14 -23 25 -20 25 3 0 1 6 -5 13 -5 6 -28 37
-49 67 -91 127 -155 210 -247 320 -165 197 -423 457 -588 595 -20 17 -49 41
-65 55 -15 14 -36 32 -47 40 -120 94 -202 157 -215 165 -17 10 -214 146 -235
162 -5 4 -19 13 -30 19 -10 6 -30 17 -44 25 -14 8 -27 17 -30 20 -9 10 -195
113 -199 110 -2 -1 -7 2 -10 7 -3 5 -24 18 -46 30 -175 89 -231 116 -235 117
-3 0 -30 12 -60 27 -62 29 -124 56 -190 82 -25 10 -54 22 -65 27 -48 20 -131
51 -147 54 -10 2 -32 10 -50 18 -47 21 -253 83 -310 94 -16 3 -28 8 -28 12 0
3 -10 7 -22 7 -13 1 -32 4 -44 7 -71 18 -153 37 -174 41 -14 3 -25 5 -25 7 0
1 -9 3 -20 4 -11 1 -45 7 -75 13 -30 7 -71 14 -90 17 -19 3 -42 8 -50 10 -15
4 -68 11 -160 22 -25 2 -56 6 -70 8 -14 2 -54 6 -90 10 -36 3 -83 8 -105 11
-46 7 -680 15 -686 10z"/>
</g>
</svg>
